
@startuml ClassDiagram
!include doc/SDS/CommonClassDiagram/ResultAndError.plantuml
!include doc/SDS/CommonClassDiagram/Recipe/RecipeDbContext.plantuml 
!include doc/SDS/CommonClassDiagram/UnitOfWork.plantuml
!include doc/SDS/CommonClassDiagram/ServiceBus.plantuml

skinparam classAttributeIconSize 0
skinparam linetype polyline
skinparam nodesep 50
skinparam ranksep 50
hide circle

class BaseApiController {
    #_sender: ISender
    #_httpContextAccessor: HttpContextAccessor
}

class AdminController {
    +AdminDisableRecipe(dto : EntityIdDTO): async Task<IActionResult>
}

class DisableRecipeCommand {
    +CurrentAccountId : Guid
    +Id : Guid
}

class DisableRecipeCommandHandler {
    -_context : IApplicationDbContext
    -_serviceBus: IServiceBus 
    -_unitOfWork: IUnitOfWork 
    +DisableRecipeCommandHandler(context : IApplicationDbContext, serviceBus : IServiceBus, unitOfWork : IUnitOfWork)
    +Handle(request: DisableRecipeCommand, cancellationToken: CancellationToken) : Task<Result>
}

class EntityIdDTO {
    +Id : Guid
}

class RecipeError {
    {static} +NotFound: Error
    {static} +NullParameters: Error
    {static} +AlreadyExist: Error
    {static} +VoteFail: Error
    {static} +AlreadyInactive: Error
    {static} +AlreadyActive: Error
    {static} +AddRecipeFail: Error
    {static} +UpdateRecipeFail: Error
    {static} +DeleteRecipeFail: Error
}

' =========== Library class ===========
interface "IRequest<TResponse>" #black;line:white;text:white
interface "IRequestHandler<TRequest, TResponse>" #black;line:white;text:white
' =========== Library class ===========
together {
    class NotifyUserEvent #Cyan;line:white;text:black
    class AddActivityLogEvent #CadetBlue;line:white;text:white
}

AdminController --|> BaseApiController
AdminController "1" -- "1" EntityIdDTO
AdminController "1" -- "1" DisableRecipeCommand

DisableRecipeCommand ..|> "IRequest<TResponse>"

DisableRecipeCommandHandler ..|> "IRequestHandler<TRequest, TResponse>"
DisableRecipeCommandHandler "1" -- "1" DisableRecipeCommand
DisableRecipeCommandHandler "1" o-- "1" IApplicationDbContext
DisableRecipeCommandHandler "1" o-- "1" IServiceBus
DisableRecipeCommandHandler "1" o-- "1" IUnitOfWork

DisableRecipeCommandHandler "1" -- "1" Result
DisableRecipeCommandHandler "1" -- "1..*" AddActivityLogEvent
DisableRecipeCommandHandler "1" -- "1..*" NotifyUserEvent
DisableRecipeCommandHandler "1" -- "1..*" RecipeError

Error "1..*" --o "1" RecipeError

@enduml